<svg xmlns="http://www.w3.org/2000/svg" width="24" height="31" viewBox="0 0 24 31">
  <path fill="#6E60E6" fill-rule="evenodd" d="M36.8235294,36.625 L42.8235294,36.625 L42.8235294,34.1590909 L36.8235294,34.1590909 L36.8235294,36.625 Z M45.2941176,32.9261364 C45.2941176,32.2451932 44.7410588,31.6931818 44.0588235,31.6931818 L35.5882353,31.6931818 C34.906,31.6931818 34.3529412,32.2451932 34.3529412,32.9261364 L34.3529412,37.8579545 C34.3529412,38.5388977 34.906,39.0909091 35.5882353,39.0909091 L44.0588235,39.0909091 C44.7410588,39.0909091 45.2941176,38.5388977 45.2941176,37.8579545 L45.2941176,32.9261364 Z M35.5963529,41.9090909 L43.9977647,41.9090909 C44.68,41.9090909 45.2330588,42.4611023 45.2330588,43.1420455 C45.2330588,43.8229886 44.68,44.375 43.9977647,44.375 L35.5963529,44.375 C34.9141176,44.375 34.3610588,43.8229886 34.3610588,43.1420455 C34.3610588,42.4611023 34.9141176,41.9090909 35.5963529,41.9090909 Z M35.5963529,46.8409091 L43.9977647,46.8409091 C44.68,46.8409091 45.2330588,47.3929205 45.2330588,48.0738636 C45.2330588,48.7548068 44.68,49.3068182 43.9977647,49.3068182 L35.5963529,49.3068182 C34.9141176,49.3068182 34.3610588,48.7548068 34.3610588,48.0738636 C34.3610588,47.3929205 34.9141176,46.8409091 35.5963529,46.8409091 Z M30.8235294,53.1818182 L49.1764706,53.1818182 L49.1764706,27.8181818 L30.8235294,27.8181818 L30.8235294,53.1818182 Z M29.4117647,25 C28.6321176,25 28,25.6309205 28,26.4090909 L28,54.5909091 C28,55.3690795 28.6321176,56 29.4117647,56 L50.5882353,56 C51.3678824,56 52,55.3690795 52,54.5909091 L52,26.4090909 C52,25.6309205 51.3678824,25 50.5882353,25 L29.4117647,25 Z" transform="translate(-28 -25)"/>
</svg>
