<svg xmlns="http://www.w3.org/2000/svg" width="28" height="28" viewBox="0 0 28 28">
  <g fill="none" fill-rule="evenodd" transform="translate(-2 -2)">
    <polygon points="0 0 32 0 32 32 0 32"/>
    <path fill="#6E60E6" fill-rule="nonzero" d="M15.9866667,2.66666667 C8.62666667,2.66666667 2.66666667,8.64 2.66666667,16 C2.66666667,23.36 8.62666667,29.3333333 15.9866667,29.3333333 C23.36,29.3333333 29.3333333,23.36 29.3333333,16 C29.3333333,8.64 23.36,2.66666667 15.9866667,2.66666667 Z M16,26.6666667 C10.1066667,26.6666667 5.33333333,21.8933333 5.33333333,16 C5.33333333,10.1066667 10.1066667,5.33333333 16,5.33333333 C21.8933333,5.33333333 26.6666667,10.1066667 26.6666667,16 C26.6666667,21.8933333 21.8933333,26.6666667 16,26.6666667 Z M20.6666667,14.6666667 C21.7733333,14.6666667 22.6666667,13.7733333 22.6666667,12.6666667 C22.6666667,11.56 21.7733333,10.6666667 20.6666667,10.6666667 C19.56,10.6666667 18.6666667,11.56 18.6666667,12.6666667 C18.6666667,13.7733333 19.56,14.6666667 20.6666667,14.6666667 Z M11.3333333,14.6666667 C12.44,14.6666667 13.3333333,13.7733333 13.3333333,12.6666667 C13.3333333,11.56 12.44,10.6666667 11.3333333,10.6666667 C10.2266667,10.6666667 9.33333333,11.56 9.33333333,12.6666667 C9.33333333,13.7733333 10.2266667,14.6666667 11.3333333,14.6666667 Z M16,23.3333333 C19.1066667,23.3333333 21.7466667,21.3866667 22.8133333,18.6666667 L9.18666667,18.6666667 C10.2533333,21.3866667 12.8933333,23.3333333 16,23.3333333 Z"/>
  </g>
</svg>
