<svg xmlns="http://www.w3.org/2000/svg" width="32" height="32" viewBox="0 0 32 32">
  <path fill="#6E60E6" fill-rule="evenodd" d="M49.346087,210.346087 C48.0076522,211.684522 46.4309565,212.697043 44.7137391,213.352 L43.9467826,208.42713 C44.6730435,208.04 45.346087,207.543304 45.9446957,206.944696 C46.5492174,206.340174 47.0403478,205.665043 47.421913,204.946435 L52.3516522,205.714087 C51.6970435,207.431304 50.6845217,209.007652 49.346087,210.346087 M40,214.217391 C39.0841739,214.217391 38.1829565,214.12313 37.306087,213.942261 L38.048,209.178435 C38.6803478,209.328348 39.333913,209.406956 40,209.406956 L40,209.406956 C40.666087,209.406956 41.3196522,209.328348 41.9516522,209.178783 L42.6935652,213.942609 C41.8166957,214.12313 40.9158261,214.217391 40,214.217391 M27.6483478,205.713739 L32.5732174,204.94713 C32.9603478,205.673043 33.4570435,206.346087 34.0556522,206.944696 C34.653913,207.542956 35.3269565,208.04 36.0528696,208.426783 L35.2862609,213.352 C33.5686957,212.697391 31.9923478,211.68487 30.653913,210.346087 C29.3154783,209.007652 28.3029565,207.431304 27.6483478,205.713739 M26.7826087,201 C26.7826087,200.084174 26.8772174,199.183304 27.0577391,198.306435 L31.8215652,199.048348 C31.672,199.680348 31.5930435,200.334261 31.5930435,201 C31.5930435,201.666087 31.672,202.319652 31.8215652,202.951652 L27.0577391,203.693565 C26.8768696,202.817043 26.7826087,201.915826 26.7826087,201 M30.653913,191.653913 C31.9926957,190.315478 33.5690435,189.302957 35.2862609,188.648348 L36.053913,193.578435 C35.3353043,193.96 34.6601739,194.45113 34.056,195.055652 C33.4573913,195.653913 32.9603478,196.326957 32.5732174,197.053217 L27.6483478,196.286261 C28.3029565,194.569043 29.3154783,192.992348 30.653913,191.653913 M40,187.782609 C40.9158261,187.782609 41.8170435,187.877217 42.6935652,188.057739 L41.949913,192.834783 C40.6681739,192.53113 39.3318261,192.53113 38.0504348,192.834783 L37.3064348,188.057739 C38.1829565,187.877217 39.0841739,187.782609 40,187.782609 M40,206.624348 C38.4977391,206.624348 37.0855652,206.039304 36.0233043,204.977043 C34.9610435,203.914783 34.3756522,202.502261 34.3756522,201 C34.3756522,199.498087 34.9610435,198.085565 36.0233043,197.023304 C37.1196522,195.926957 38.56,195.378783 40,195.378783 C41.4403478,195.378783 42.8806957,195.926957 43.9766957,197.023304 C45.0393043,198.085565 45.624,199.498087 45.624,201.000348 C45.624,202.502609 45.0393043,203.914783 43.9766957,204.977043 C42.9147826,206.039304 41.5022609,206.624348 40,206.624348 M52.3516522,196.286261 L47.421913,197.053913 C47.0403478,196.335304 46.5492174,195.660174 45.9446957,195.055652 C45.3401739,194.45113 44.6646957,193.96 43.946087,193.578435 L44.7137391,188.648348 C46.4313043,189.302957 48.0076522,190.315826 49.346087,191.654261 C50.6845217,192.992696 51.6970435,194.569043 52.3516522,196.286261 M48.1655652,199.050435 L52.9422609,198.306435 C53.1227826,199.183304 53.2173913,200.084522 53.2173913,201.000348 C53.2173913,201.916174 53.1227826,202.817043 52.9422609,203.693913 L48.1655652,202.949913 C48.4692174,201.668174 48.4692174,200.332174 48.1655652,199.050435 M51.3137391,189.686609 C48.2914783,186.664696 44.2737391,185 40,185 C39.9996522,185 40,185 40,185 C35.7262609,185 31.7081739,186.664696 28.6862609,189.686261 C25.6643478,192.708522 24,196.726261 24,201 C24,205.273739 25.6643478,209.291826 28.6862609,212.314087 C31.7085217,215.336 35.7262609,217.000348 40,217 C44.2737391,217 48.2918261,215.335652 51.3137391,212.313739 C54.3356522,209.291826 56,205.273739 56,201.000348 C56,196.726609 54.3356522,192.708522 51.3137391,189.686609" transform="translate(-24 -185)"/>
</svg>
