<svg xmlns="http://www.w3.org/2000/svg" width="32" height="29" viewBox="0 0 32 29">
  <path fill="#6E60E6" fill-rule="evenodd" d="M611.231325,236.589024 C611.554804,236.256585 611.739152,235.803902 611.739152,235.337073 C611.739152,234.870244 611.554804,234.414024 611.231325,234.085122 C610.904369,233.75622 610.459151,233.56878 610.000021,233.56878 C609.540891,233.56878 609.092195,233.75622 608.768717,234.085122 C608.445238,234.414024 608.260891,234.870244 608.260891,235.337073 C608.260891,235.803902 608.445238,236.256585 608.768717,236.589024 C609.092195,236.917927 609.540891,237.105366 610.000021,237.105366 C610.459151,237.105366 610.907847,236.917927 611.231325,236.589024 L611.231325,236.589024 Z M611.391325,230.71511 L611.391325,224.135293 C611.391325,223.354061 610.768369,222.720659 610.000021,222.720659 C609.231673,222.720659 608.608717,223.354061 608.608717,224.135293 L608.608717,230.71511 C608.608717,231.496341 609.231673,232.129744 610.000021,232.129744 C610.768369,232.129744 611.391325,231.496341 611.391325,230.71511 L611.391325,230.71511 Z M597.78089,239.170732 L622.219152,239.170732 L610.000021,217.280683 L597.78089,239.170732 Z M624.608717,242 L595.391325,242 C594.896021,242 594.438282,241.73228 594.18889,241.29728 C593.939847,240.86228 593.936716,240.325073 594.181586,239.887244 L608.789934,213.716512 C609.037238,213.273732 609.499499,213 610.000021,213 C610.500543,213 610.962804,213.273732 611.20976,213.716512 L625.818456,239.887244 C626.063326,240.325073 626.060195,240.86228 625.810804,241.29728 C625.561761,241.73228 625.104021,242 624.608717,242 L624.608717,242 Z" transform="translate(-594 -213)"/>
</svg>
