<svg xmlns="http://www.w3.org/2000/svg" viewBox="0 0 440.12 50.43"><path fill="#b1abea" d="M34.1 45.55l-2.29-.33-1.57-.22-.69-.2c-.29-4.32-1.72-6.37-3-7.6a22.55 22.55 0 00-2.67-1.47 16.76 16.76 0 00.35 4.58 6.29 6.29 0 003.57 4A32.37 32.37 0 0121.63 42a13.88 13.88 0 00.21-5 6.61 6.61 0 00-1-3 23.06 23.06 0 00-2-2.07 15.53 15.53 0 00-1.12 4.36 5.06 5.06 0 00.45 2.46A6 6 0 0020 41.22s-1.42-.9-2.76-1.88a11.36 11.36 0 01-1.76-1.48l-.75-.74c2-3.69 2.64-6.23 1.44-9.5a2.74 2.74 0 00-.51-.65c-1.59 1.74-4.51 4.82-2.2 8.86l-2-2.62a16.86 16.86 0 01-1.06-2l-.4-.88c3.13-2.76 4.4-4.7 4.68-6.41a6.69 6.69 0 00-.15-3.05c-2.2 1.35-5.89 3.28-5.24 7.82 0 0-.14-.38-.31-1s-.36-1.38-.53-2.19A32.57 32.57 0 018 22.27c4-1.54 5.62-3.43 6.42-5a6.54 6.54 0 00.65-3c-2.49.67-6.49 1.6-7.17 6.17 0 0-.05-1.64.08-3.29a28.86 28.86 0 01.41-3.26c4.31-.43 6.33-1.79 7.5-2.89a15.73 15.73 0 001.39-2.21 11 11 0 00-4.43-.1 5.68 5.68 0 00-4.07 3.43 5.73 5.73 0 01.22-.68L9.42 10c.39-1.08.82-2.1.82-2.1a7.49 7.49 0 003.06-2c1-1.08 1.54-2.67 2.49-5.85V0a6.41 6.41 0 00-6.57 3.39A5.18 5.18 0 009 7.47s-.48 1.1-.85 2.23l-.5 1.59c-.14.44-.17.73-.17.73a14.35 14.35 0 00-.69-6.11c-.5-1.79-1.3-3.45-1.64-5.05a12.6 12.6 0 00-1 1.3A10.46 10.46 0 002.86 5.6a7.21 7.21 0 004.3 8.09 31.35 31.35 0 00-.45 3.49c-.13 1.76-.06 3.52-.06 3.52-.78-4.69-3.82-7-5.73-9.55A9.73 9.73 0 00.36 16a7.41 7.41 0 006.37 6.41s.15 1.77.49 3.49a29.48 29.48 0 00.94 3.42C6.08 25 2.6 23.53 0 21.6a9.78 9.78 0 00.74 4.79 7.14 7.14 0 008.07 4.45l.51 1A14 14 0 0010.53 34l2.11 2.84c-3.46-3.23-7.21-3.42-10.47-4.57a10.76 10.76 0 00.56 1.46 13.1 13.1 0 002 3.11C6.79 38.76 10 40.23 13.87 38l.8.79a10.44 10.44 0 001.9 1.59c.73.52 1.48 1 2 1.43a5.93 5.93 0 00.95.55 15 15 0 00-3.1-.88 18.59 18.59 0 00-2.9-.09c-1.83 0-3.6.39-5.24.44a11.84 11.84 0 001 1.15 8.87 8.87 0 002.86 2.12 8.34 8.34 0 004.29.71 8.25 8.25 0 004.64-2.65c-.08.2 5.26 2.21 6.37 2.45a17.5 17.5 0 00-3 0 11.7 11.7 0 00-2.78.76c-1.71.62-3.23 1.45-4.73 2a13.23 13.23 0 001.23.8 8 8 0 003.24 1.08c2.62.44 5.9-.5 7.93-4.29l.73.19c.44.12 1 .14 1.62.22l2.36.33a.63.63 0 00.63-.62.62.62 0 00-.57-.53zm2.68 0l2.29-.33 1.58-.22.7-.2c.29-4.32 1.72-6.37 3-7.6A21.35 21.35 0 0147 35.75a16.77 16.77 0 01-.34 4.58 6.3 6.3 0 01-3.55 4A32.45 32.45 0 0049.25 42a13.68 13.68 0 01-.19-5 6.41 6.41 0 011-3A21.77 21.77 0 0152 32a15.59 15.59 0 011.11 4.36 5.15 5.15 0 01-.45 2.46 5.93 5.93 0 01-1.77 2.42 32.23 32.23 0 002.77-1.88 11.31 11.31 0 001.76-1.48l.74-.74c-2-3.69-2.64-6.23-1.44-9.5a3 3 0 01.48-.64c1.59 1.74 4.51 4.82 2.2 8.86l2-2.62a15.65 15.65 0 001.06-2l.47-.92c-3.12-2.76-4.4-4.7-4.69-6.41a6.88 6.88 0 01.15-3.05c2.2 1.35 5.9 3.28 5.26 7.82l.3-1c.18-.62.37-1.38.55-2.19.31-1.61.44-3.26.44-3.26-4-1.54-5.62-3.43-6.41-5a6.62 6.62 0 01-.67-3c2.5.67 6.5 1.6 7.19 6.17 0 0 0-1.64-.09-3.29a30.27 30.27 0 00-.41-3.26C58.2 13.48 56.19 12.12 55 11a16.25 16.25 0 01-1.37-2.21 11 11 0 014.43-.1 5.64 5.64 0 014.05 3.43 5.42 5.42 0 00-.17-.71l-.47-1.47c-.4-1.08-.82-2.1-.82-2.1a7.38 7.38 0 01-3.06-2c-1-1.08-1.54-2.67-2.5-5.85V0a6.41 6.41 0 016.55 3.36 5.18 5.18 0 01.17 4.08s.49 1.1.86 2.23l.5 1.59c.14.44.17.73.17.73a14.39 14.39 0 01.69-6.11c.55-1.79 1.35-3.45 1.68-5.06a12.79 12.79 0 011 1.3A10.37 10.37 0 0168 5.6a7.21 7.21 0 01-4.28 8.09 33.83 33.83 0 01.44 3.49c.13 1.76.06 3.52.06 3.52.77-4.69 3.81-7 5.73-9.55a9.92 9.92 0 01.58 4.85 7.42 7.42 0 01-6.4 6.41 32.2 32.2 0 01-.47 3.49 30.65 30.65 0 01-.93 3.42c2.06-4.33 5.54-5.77 8.11-7.69a9.7 9.7 0 01-.75 4.79A7.16 7.16 0 0162 30.84l-.49 1A13.28 13.28 0 0160.34 34c-1 1.42-2.1 2.84-2.1 2.84 3.47-3.23 7.21-3.42 10.47-4.57a10.08 10.08 0 01-.55 1.46 13.38 13.38 0 01-2 3.11C64.09 38.76 60.91 40.23 57 38l-.81.79a10.42 10.42 0 01-1.9 1.59l-2 1.43a5.81 5.81 0 01-.94.55 14.82 14.82 0 013.11-.88 18.57 18.57 0 012.9-.09c1.82 0 3.59.39 5.23.44a12.1 12.1 0 01-1 1.15 8.88 8.88 0 01-2.86 2.12 8.32 8.32 0 01-4.28.71 8.27 8.27 0 01-4.65-2.65c.09.2-5.26 2.21-6.37 2.45a17.66 17.66 0 013.06 0 11.44 11.44 0 012.77.76c1.72.62 3.25 1.45 4.74 2a11.73 11.73 0 01-1.23.8 8 8 0 01-3.23 1.08c-2.62.44-5.91-.5-7.94-4.29l-.71.19c-.45 0-1 .14-1.63.22l-2.36.33a.62.62 0 01-.07-1.24z"/><path fill="#2d2298" d="M26 11.83c5.32 1.53 6.53 2.74 8.06 8.06a.34.34 0 00.65 0c1.53-5.32 2.74-6.53 8.06-8.06a.34.34 0 000-.65c-5.32-1.53-6.53-2.74-8.06-8.06a.34.34 0 00-.65 0C32.5 8.44 31.29 9.65 26 11.18a.34.34 0 000 .65zM22.94 26.9a.34.34 0 00.65 0c.7-2.43 1.21-2.94 3.64-3.64a.34.34 0 000-.65c-2.43-.7-2.94-1.21-3.64-3.64a.34.34 0 00-.65 0c-.7 2.43-1.21 2.94-3.64 3.64a.34.34 0 000 .65c2.43.74 2.94 1.21 3.64 3.64zm26.47-.7c-2.81-.81-3.4-1.4-4.2-4.2a.34.34 0 00-.65 0c-.81 2.81-1.4 3.4-4.2 4.2a.34.34 0 000 .65c2.81.81 3.4 1.4 4.2 4.2a.34.34 0 00.65 0c.81-2.81 1.4-3.4 4.2-4.2a.34.34 0 000-.65z"/><path fill="#0f0b33" d="M120.73 35.14h-14.4l-3 8.1h-7.3l13.6-35.45h8l13.5 35.45h-7.5zm-12.1-6.3h9.8l-4.9-13.4zm24.69 14.4V7H140v36.2zm11.85 0V7h6.65v36.2zm20.7-17.7c0-11.3 8.55-18.5 18.05-18.5 9.8 0 14.85 6 16.25 11.75l-6.5 2c-.85-3.4-3.6-7.15-9.75-7.15-5.3 0-10.9 3.8-10.9 11.85 0 7.55 5.3 11.7 11 11.7A9.85 9.85 0 00194 30l6.45 2C199.08 37.39 194 44 184 44s-18.13-7.16-18.13-18.46zm61.86 5.4a12.9 12.9 0 11-25.8 0 12.9 12.9 0 1125.8 0zm-6.65 0c0-4.65-3-7-6.25-7s-6.25 2.35-6.25 7 3 7 6.25 7 6.25-2.35 6.25-7zm16.64 12.3h-6.65v-24.6h6.45v3a8.17 8.17 0 017.1-3.7c6.1 0 8.9 4.35 8.9 9.75v15.5h-6.65v-14.3c0-2.75-1.35-4.9-4.55-4.9-2.9 0-4.6 2.25-4.6 5.1zm28.85-24.6h5v5.9h-5v10.3c0 2.15 1 2.85 2.9 2.85a9.69 9.69 0 002-.2V43a9.87 9.87 0 01-3.75.6c-4.8 0-7.8-2.85-7.8-7.6V24.54h-4.45v-5.9h1.25c2.6 0 3.8-1.7 3.8-3.9v-3.45h6zm23.55 6.6a10 10 0 00-2-.2c-3.4 0-6.35 1.65-6.35 7v11.2h-6.65v-24.6h6.45v3.65c1.5-3.25 4.9-3.85 7-3.85a14.92 14.92 0 011.55.1zm5.95-18.8a4.1 4.1 0 11-4.1 4.15 4.1 4.1 0 014.1-4.15zm-3.3 36.8v-24.6h6.65v24.6zm11.85 0V7h6.55v14.3c1.1-1.75 3.8-3.35 7.45-3.35 7.2 0 11.35 5.55 11.35 12.85s-4.6 13-11.6 13a8.33 8.33 0 01-7.3-3.6v3zm12.6-19.3c-3.35 0-6.15 2.45-6.15 7s2.8 7 6.15 7 6.1-2.5 6.1-7-2.7-7-6.1-7zm32 16.65c-1.35 2.3-4.2 3.3-6.8 3.3-6 0-9.35-4.35-9.35-9.7V18.64h6.65v14.2c0 2.75 1.4 5 4.5 5 3 0 4.65-2 4.65-4.85V18.64h6.65v20.15a40.3 40.3 0 00.25 4.45h-6.35a16.77 16.77 0 01-.2-2.65zm19.7-21.95h5v5.9h-5v10.3c0 2.15 1 2.85 2.9 2.85a9.69 9.69 0 002-.2V43a9.87 9.87 0 01-3.75.6c-4.8 0-7.8-2.85-7.8-7.6V24.54h-4.45v-5.9h1.25c2.6 0 3.8-1.7 3.8-3.9v-3.45h6zm32.5 12.3a12.9 12.9 0 11-25.8 0 12.9 12.9 0 1125.8 0zm-6.65 0c0-4.65-3-7-6.25-7s-6.25 2.35-6.25 7 3 7 6.25 7 6.25-2.35 6.25-7zm25-5.7a10 10 0 00-2-.2c-3.4 0-6.35 1.65-6.35 7v11.2h-6.65v-24.6h6.45v3.65c1.5-3.25 4.9-3.85 7-3.85a14.92 14.92 0 011.55.1zm6.23 9.9c.15 2 1.6 3.75 4.5 3.75 2.2 0 3.25-1.15 3.25-2.45 0-1.1-.75-2-2.65-2.4l-3.25-.75c-4.75-1.05-6.9-3.9-6.9-7.35 0-4.4 3.9-8.05 9.2-8.05 7 0 9.35 4.45 9.65 7.1l-5.55 1.25a3.75 3.75 0 00-4.05-3.3c-1.75 0-3.15 1-3.15 2.45 0 1.2.9 2 2.25 2.2l3.5.75c4.85 1 7.3 4 7.3 7.55 0 4-3.1 8.1-9.55 8.1-7.4 0-10-4.8-10.25-7.6z"/></svg>
