<svg xmlns="http://www.w3.org/2000/svg" width="24" height="31" viewBox="0 0 24 31"><path fill="#6E60E6" fill-rule="evenodd" d="M8.824 11.625h6V9.159h-6v2.466zm8.47-3.699c0-.68-.553-1.233-1.235-1.233h-8.47c-.683 0-1.236.552-1.236 1.233v4.932c0 .68.553 1.233 1.235 1.233h8.47c.683 0 1.236-.552 1.236-1.233V7.926zM7.596 16.91h8.402a1.234 1.234 0 1 1 0 2.466H7.596a1.234 1.234 0 1 1 0-2.466zm0 4.932h8.402a1.234 1.234 0 1 1 0 2.466H7.596a1.234 1.234 0 1 1 0-2.466zm-4.772 6.34h18.352V2.819H2.824v25.364zM1.412 0C.632 0 0 .63 0 1.41v28.18C0 30.37.632 31 1.412 31h21.176c.78 0 1.412-.63 1.412-1.41V1.41A1.41 1.41 0 0 0 22.588 0H1.412z"/></svg>