<svg xmlns="http://www.w3.org/2000/svg" width="28" height="28" viewBox="0 0 28 28"><g fill="none" fill-rule="evenodd"><path d="M-2-2h32v32H-2z"/><path fill="#6E60E6" fill-rule="nonzero" d="M13.987.667C6.627.667.667 6.64.667 14s5.96 13.333 13.32 13.333c7.373 0 13.346-5.973 13.346-13.333S21.36.667 13.987.667zm.013 24C8.107 24.667 3.333 19.893 3.333 14S8.107 3.333 14 3.333 24.667 8.107 24.667 14 19.893 24.667 14 24.667zm4.667-12c1.106 0 2-.894 2-2 0-1.107-.894-2-2-2-1.107 0-2 .893-2 2 0 1.106.893 2 2 2zm-9.334 0c1.107 0 2-.894 2-2 0-1.107-.893-2-2-2-1.106 0-2 .893-2 2 0 1.106.894 2 2 2zM14 21.333c3.107 0 5.747-1.946 6.813-4.666H7.187c1.066 2.72 3.706 4.666 6.813 4.666z"/></g></svg>