<svg xmlns="http://www.w3.org/2000/svg" width="32" height="32" viewBox="0 0 32 32"><path fill="#6E60E6" fill-rule="evenodd" d="M25.346 25.346a13.185 13.185 0 0 1-4.632 3.006l-.767-4.925a8.436 8.436 0 0 0 3.475-3.48l4.93.767a13.178 13.178 0 0 1-3.006 4.632M16 29.217c-.916 0-1.817-.094-2.694-.275l.742-4.764a8.467 8.467 0 0 0 3.904 0l.742 4.765c-.877.18-1.778.274-2.694.274M3.648 20.714l4.925-.767a8.44 8.44 0 0 0 1.483 1.998 8.43 8.43 0 0 0 1.997 1.482l-.767 4.925a13.172 13.172 0 0 1-4.632-3.006 13.176 13.176 0 0 1-3.006-4.632M2.783 16c0-.916.094-1.817.275-2.694l4.764.742a8.47 8.47 0 0 0 0 3.904l-4.764.742A13.32 13.32 0 0 1 2.783 16m3.87-9.346a13.182 13.182 0 0 1 4.633-3.006l.768 4.93a8.428 8.428 0 0 0-3.48 3.475l-4.926-.767a13.18 13.18 0 0 1 3.006-4.632M16 2.783c.916 0 1.817.094 2.694.275l-.744 4.777a8.46 8.46 0 0 0-3.9 0l-.744-4.777A13.39 13.39 0 0 1 16 2.783m0 18.841a5.587 5.587 0 0 1-3.977-1.647A5.588 5.588 0 0 1 10.376 16a5.59 5.59 0 0 1 1.647-3.977A5.607 5.607 0 0 1 16 10.38c1.44 0 2.88.548 3.977 1.644A5.586 5.586 0 0 1 21.624 16a5.586 5.586 0 0 1-1.647 3.977A5.586 5.586 0 0 1 16 21.624m12.352-10.338l-4.93.768a8.375 8.375 0 0 0-3.476-3.476l.768-4.93a13.177 13.177 0 0 1 4.632 3.006 13.178 13.178 0 0 1 3.006 4.632m-4.186 2.764l4.776-.744a13.351 13.351 0 0 1 0 5.388l-4.776-.744a8.46 8.46 0 0 0 0-3.9m3.148-9.363A15.896 15.896 0 0 0 16 0 15.897 15.897 0 0 0 4.686 4.686 15.896 15.896 0 0 0 0 16c0 4.274 1.664 8.292 4.686 11.314A15.894 15.894 0 0 0 16 32c4.274 0 8.292-1.664 11.314-4.686A15.895 15.895 0 0 0 32 16c0-4.273-1.664-8.291-4.686-11.313"/></svg>