<svg xmlns="http://www.w3.org/2000/svg" width="32" height="29" viewBox="0 0 32 29"><path fill="#6E60E6" fill-rule="evenodd" d="M17.231 23.589a1.796 1.796 0 0 0 0-2.504A1.743 1.743 0 0 0 16 20.57c-.46 0-.908.187-1.231.516a1.796 1.796 0 0 0 0 2.504c.323.329.772.516 1.231.516.46 0 .908-.187 1.231-.516zm.16-5.874v-6.58c0-.78-.623-1.414-1.391-1.414s-1.391.633-1.391 1.414v6.58c0 .781.623 1.415 1.391 1.415s1.391-.634 1.391-1.415zm-13.61 8.456h24.438L16 4.28 3.78 26.17zM30.609 29H1.39c-.495 0-.953-.268-1.202-.703a1.434 1.434 0 0 1-.007-1.41L14.79.717C15.037.274 15.5 0 16 0s.963.274 1.21.717l14.608 26.17c.245.438.242.975-.007 1.41a1.387 1.387 0 0 1-1.202.703z"/></svg>